# xmcd CD database file
#
# Track frame offsets:
#	150
#	24282
#	41988
#	75482
#	96951
#	116084
#	127057
#	135104
#	160931
#	187769
#	207467
#	227593
#	250054
#	280905
#	317023
#
# Disc length: 4568 seconds
#
# Revision: 0
# Processed by: cddbd v1.5.2PL0 Copyright (c) Steve Scherf et al.
# Submitted via: CDex 1.70beta2
#
DISCID=c411d60f
DTITLE=Rebel Blues - Well Life's Been
DYEAR=2010
DGENRE=Blues
TTITLE0=G-Thang
TTITLE1=Discouraged
TTITLE2=3 Days
TTITLE3=Stone Cold Foxy
TTITLE4=Alone
TTITLE5=Till The End Of My Days
TTITLE6=Java Boogie
TTITLE7=Sometimes I Wonder
TTITLE8=Give It Up
TTITLE9=2X4 (Two By Four)
TTITLE10=Move It On Over
TTITLE11=Krelbow
TTITLE12=Bad Habits
TTITLE13=Reflection
TTITLE14=Well Life's Been...
EXTD=YEAR: 2010
EXTT0=
EXTT1=
EXTT2=
EXTT3=
EXTT4=
EXTT5=
EXTT6=
EXTT7=
EXTT8=
EXTT9=
EXTT10=
EXTT11=
EXTT12=
EXTT13=
EXTT14=
PLAYORDER=
